<?xml version="1.0"?>
<svg xmlns="http://www.w3.org/2000/svg" version="1.1" viewBox="0 0 14 4" preserveAspectRatio="xMidYMid meet"><rect stroke="black" stroke-width="0.01" fill="lightgrey" x="0.1" y="1.1" width="0.8" height="0.8"/><text font-size="0.2" fill="black" font-family="sans-serif" baseline="central" text-anchor="middle" x="0.5" y="1.5">I.K.</text><rect stroke="black" stroke-width="0.01" fill="lightgrey" x="1.1" y="3.1" width="0.8" height="0.8"/><text font-size="0.2" fill="black" font-family="sans-serif" baseline="central" text-anchor="middle" x="1.5" y="3.5">I.K.</text><rect stroke="black" stroke-width="0.01" fill="lightgrey" x="1.1" y="2.1" width="0.8" height="0.8"/><text font-size="0.2" fill="black" font-family="sans-serif" baseline="central" text-anchor="middle" x="1.5" y="2.5">V.K.</text><rect stroke="black" stroke-width="0.01" fill="lightgrey" x="1.1" y="1.1" width="0.8" height="0.8"/><text font-size="0.2" fill="black" font-family="sans-serif" baseline="central" text-anchor="middle" x="1.5" y="1.5">V.P.</text><rect stroke="black" stroke-width="0.01" fill="lightgrey" x="2.1" y="2.1" width="0.8" height="0.8"/><text font-size="0.2" fill="black" font-family="sans-serif" baseline="central" text-anchor="middle" x="2.5" y="2.5">V.B.</text><rect stroke="black" stroke-width="0.01" fill="lightgrey" x="3.1" y="2.1" width="0.8" height="0.8"/><text font-size="0.2" fill="black" font-family="sans-serif" baseline="central" text-anchor="middle" x="3.5" y="2.5">A.X.</text><rect stroke="black" stroke-width="0.01" fill="lightgrey" x="4.1" y="2.1" width="0.8" height="0.8"/><text font-size="0.2" fill="black" font-family="sans-serif" baseline="central" text-anchor="middle" x="4.5" y="2.5">S.G.</text><rect stroke="black" stroke-width="0.01" fill="lightgrey" x="2.1" y="1.1" width="2.8" height="0.8"/><text font-size="0.2" fill="black" font-family="sans-serif" baseline="central" text-anchor="middle" x="3.5" y="1.5">A.L.</text><rect stroke="black" stroke-width="0.01" fill="lightgrey" x="5.1" y="2.1" width="0.8" height="0.8"/><text font-size="0.2" fill="black" font-family="sans-serif" baseline="central" text-anchor="middle" x="5.5" y="2.5">A.P.</text><rect stroke="black" stroke-width="0.01" fill="lightgrey" x="6.1" y="2.1" width="0.8" height="0.8"/><text font-size="0.2" fill="black" font-family="sans-serif" baseline="central" text-anchor="middle" x="6.5" y="2.5">E.L.</text><rect stroke="black" stroke-width="0.01" fill="lightgrey" x="5.1" y="1.1" width="1.8" height="0.8"/><text font-size="0.2" fill="black" font-family="sans-serif" baseline="central" text-anchor="middle" x="6" y="1.5">M.L.</text><rect stroke="black" stroke-width="0.01" fill="lightgrey" x="7.1" y="1.1" width="0.8" height="0.8"/><text font-size="0.2" fill="black" font-family="sans-serif" baseline="central" text-anchor="middle" x="7.5" y="1.5">E.B.</text><rect stroke="black" stroke-width="0.01" fill="lightgrey" x="8.1" y="1.1" width="0.8" height="0.8"/><text font-size="0.2" fill="black" font-family="sans-serif" baseline="central" text-anchor="middle" x="8.5" y="1.5">E.M.</text><rect stroke="black" stroke-width="0.01" fill="lightgrey" x="9.1" y="3.1" width="0.8" height="0.8"/><text font-size="0.2" fill="black" font-family="sans-serif" baseline="central" text-anchor="middle" x="9.5" y="3.5">M.B.</text><rect stroke="black" stroke-width="0.01" fill="lightgrey" x="9.1" y="2.1" width="0.8" height="0.8"/><text font-size="0.2" fill="black" font-family="sans-serif" baseline="central" text-anchor="middle" x="9.5" y="2.5">A.P.</text><rect stroke="black" stroke-width="0.01" fill="lightgrey" x="10.1" y="3.1" width="0.8" height="0.8"/><text font-size="0.2" fill="black" font-family="sans-serif" baseline="central" text-anchor="middle" x="10.5" y="3.5">L.K.</text><rect stroke="black" stroke-width="0.01" fill="lightgrey" x="10.1" y="2.1" width="0.8" height="0.8"/><text font-size="0.2" fill="black" font-family="sans-serif" baseline="central" text-anchor="middle" x="10.5" y="2.5">A.R.</text><rect stroke="black" stroke-width="0.01" fill="lightgrey" x="11.1" y="3.1" width="0.8" height="0.8"/><text font-size="0.2" fill="black" font-family="sans-serif" baseline="central" text-anchor="middle" x="11.5" y="3.5">V.T.</text><rect stroke="black" stroke-width="0.01" fill="lightgrey" x="12.1" y="3.1" width="0.8" height="0.8"/><text font-size="0.2" fill="black" font-family="sans-serif" baseline="central" text-anchor="middle" x="12.5" y="3.5">Y.S.</text><rect stroke="black" stroke-width="0.01" fill="lightgrey" x="11.1" y="2.1" width="1.8" height="0.8"/><text font-size="0.2" fill="black" font-family="sans-serif" baseline="central" text-anchor="middle" x="12" y="2.5">Y.K.</text><rect stroke="black" stroke-width="0.01" fill="lightgrey" x="9.1" y="1.1" width="3.8" height="0.8"/><text font-size="0.2" fill="black" font-family="sans-serif" baseline="central" text-anchor="middle" x="11" y="1.5">P.L.</text><rect stroke="black" stroke-width="0.01" fill="lightgrey" x="0.1" y="0.1" width="12.8" height="0.8"/><text font-size="0.2" fill="black" font-family="sans-serif" baseline="central" text-anchor="middle" x="6.5" y="0.5">R.B.</text></svg>
